# 3ds Max Wavefront OBJ Exporter v0.97b - (c)2007 guruware
# File Created: 29.10.2014 10:55:37

mtllib F-15_final.mtl

#
# object Box001
#

v  -2.6777 -0.4273 12.6591
v  -2.8046 0.2573 13.7229
v  -3.0812 0.0025 9.4497
v  -2.6777 -0.2439 8.8703
v  -3.2462 0.4925 7.9132
v  -3.3339 0.3988 4.2565
v  -2.9960 0.7389 -1.1456
v  -2.6787 0.1522 -1.1456
v  -2.4557 0.5753 -3.4245
v  -2.4144 0.4701 -5.3615
v  -2.4225 -0.1165 -4.3091
v  -2.4257 -0.1175 -3.1960
v  -1.6694 0.4701 -5.3275
v  -1.6670 -0.1165 -4.3228
v  -1.3242 0.4701 -6.5195
v  -1.1232 0.4263 -8.3025
v  -1.0182 -0.1165 -8.3176
v  -1.2347 -0.1165 -6.0997
v  -0.9919 -0.1165 -9.9111
v  -1.1105 0.3797 -9.8988
v  -0.9868 0.2712 -12.4386
v  -0.9453 -0.1128 -12.3747
v  -0.7431 0.1219 -13.8003
v  -0.6267 -0.0886 -13.7711
v  -6.0049 0.2575 14.2582
v  -6.0049 0.4352 14.2582
v  -6.7941 0.4352 13.1136
v  -6.7941 0.2165 13.1136
v  -3.0812 0.4352 9.4497
v  -3.2462 0.9252 7.9132
v  -8.6639 0.7768 8.4176
v  -8.6639 0.9252 8.4176
v  -10.0015 0.9010 6.1358
v  -10.0015 0.8060 6.1358
v  -2.4616 1.2057 -4.2483
v  -2.3774 1.2546 -6.5794
v  -1.7204 1.1314 -6.3825
v  -1.2693 0.9390 -6.8422
v  -1.0325 0.8443 -8.2662
v  -1.0509 0.7727 -9.8982
v  -0.8619 0.6088 -12.4306
v  -0.6737 0.3364 -13.8124
v  -2.2236 -0.9855 8.0494
v  -2.2236 -0.8306 10.4081
v  -2.8794 -1.2038 3.6896
v  -2.4085 -0.6921 -2.1094
v  -2.4172 -0.5785 -3.5314
v  -2.3531 -0.5981 -3.0816
v  -1.6115 -0.5814 -3.5656
v  -0.8112 -0.6159 -8.4233
v  -0.8391 -0.6704 -6.1549
v  -0.7040 -0.5621 -12.2310
v  -0.7366 -0.5553 -9.8984
v  -0.4837 -0.3720 -13.7001
v  -1.4556 -0.9855 8.0494
v  -1.4524 -0.8306 10.3919
v  -1.2033 -1.2038 3.6896
v  -0.7801 -0.9427 -1.6914
v  -2.3511 -0.5596 -2.8766
v  -0.3885 -0.5553 -9.8984
v  -0.5768 -0.6704 -6.8517
v  -0.3693 -0.5621 -12.2310
v  -0.3557 -0.3854 -13.7002
v  -0.0554 -0.9855 8.0494
v  -0.0554 -0.8306 10.3919
v  -0.0554 -1.2038 3.6896
v  -0.0554 -0.9427 -2.0564
v  -0.0554 -0.6790 -5.7818
v  -0.0554 -0.6704 -7.0702
v  -0.0554 -0.5553 -9.8984
v  -0.0554 -0.5621 -12.2310
v  -0.0554 -0.3824 -13.7002
v  -0.3957 -0.0711 -14.7836
v  -0.4288 0.0082 -14.7836
v  -0.2972 0.0082 -15.0781
v  -0.2972 -0.0959 -15.0781
v  -0.3831 0.0638 -14.7836
v  -0.2972 0.0843 -15.0781
v  -0.1448 0.0082 -15.3468
v  -0.1448 -0.0790 -15.3468
v  -0.1448 0.1003 -15.3468
v  -0.0554 0.0082 -15.5128
v  -0.0554 -0.0477 -15.5128
v  -0.0554 0.0992 -15.5123
v  -0.5426 0.5115 -13.8112
v  -0.8581 1.2017 -9.8562
v  -0.6774 0.8405 -12.4099
v  -1.4992 1.4980 -6.6398
v  -1.0304 1.3714 -6.9647
v  -2.9545 1.1114 -2.9322
v  -2.9960 1.1715 -1.1456
v  -1.6969 1.4238 -1.5545
v  -2.2933 1.1766 4.5689
v  -2.6849 1.2514 8.4526
v  -2.8046 0.4352 13.8191
v  -2.7119 0.6964 13.1233
v  -2.6849 1.2514 12.8065
v  -0.2812 0.7363 -13.8007
v  -0.6260 1.5473 -9.9662
v  -0.4008 1.1860 -12.3780
v  -0.8245 1.3142 -8.4579
v  -0.7283 1.6770 -8.7712
v  -0.8045 1.8024 -7.1138
v  -0.6276 1.7377 -3.6858
v  -0.7689 1.8830 -6.6588
v  -0.9427 1.6387 -2.1556
v  -2.2176 1.2529 8.3719
v  -1.2033 1.2669 3.5524
v  -2.6409 5.6926 11.6945
v  -2.6409 5.6926 13.0762
v  -2.5333 5.6941 13.0720
v  -2.5333 5.6941 11.6945
v  -0.0554 0.8635 -13.7587
v  -0.3800 1.6350 -10.0421
v  -0.2040 1.2699 -12.3284
v  -0.4461 2.3414 -8.9315
v  -0.3806 1.9838 -3.8167
v  -0.4199 2.6475 -6.7528
v  -0.0554 1.9987 -2.0790
v  -0.0554 2.2053 -3.9316
v  -0.9629 1.5712 8.8124
v  -0.0554 1.1626 9.1311
v  -0.0554 1.3626 3.5524
v  -0.5937 1.3177 3.5524
v  -2.1916 0.0025 12.3912
v  -2.5944 0.7124 12.5915
v  -1.4524 0.0025 12.3750
v  -2.2865 0.7972 12.4851
v  -0.0554 0.0025 12.3749
v  -0.0554 0.7622 12.3709
v  -5.8765 0.7014 7.7863
v  -5.8425 0.9252 7.7798
v  -4.1751 0.1118 10.7770
v  -4.2732 0.1197 10.1880
v  -4.1756 0.4352 10.7774
v  -4.2734 0.4352 10.1881
v  -2.4314 1.2529 12.8023
v  -2.3261 1.2529 10.4190
v  -0.4582 2.6158 -7.7615
v  -0.0554 2.7686 -6.8149
v  -0.0554 2.7328 -7.9175
v  -0.0554 2.4396 -9.0558
v  -0.0554 1.7077 -10.0836
v  -0.0554 1.3012 -12.2910
v  -2.4398 -0.0094 -2.7599
v  -2.9442 0.6745 -2.9719
v  -0.0554 0.9864 12.3595
v  -0.0554 1.0499 10.3849
v  2.5670 -0.4273 12.6591
v  2.5670 -0.2439 8.8703
v  2.9705 0.0025 9.4497
v  2.6939 0.2573 13.7229
v  3.2231 0.3988 4.2565
v  3.1355 0.4925 7.9132
v  2.5680 0.1522 -1.1456
v  2.8853 0.7389 -1.1456
v  2.3450 0.5753 -3.4245
v  2.3150 -0.1175 -3.1960
v  2.3118 -0.1165 -4.3091
v  2.3036 0.4701 -5.3615
v  1.5587 0.4701 -5.3275
v  1.5563 -0.1165 -4.3228
v  1.2135 0.4701 -6.5195
v  1.1240 -0.1165 -6.0997
v  0.9075 -0.1165 -8.3176
v  1.0125 0.4263 -8.3025
v  0.8812 -0.1165 -9.9111
v  0.8346 -0.1128 -12.3747
v  0.8760 0.2712 -12.4386
v  0.9998 0.3797 -9.8988
v  0.5160 -0.0886 -13.7711
v  0.6324 0.1219 -13.8003
v  5.8941 0.2575 14.2582
v  6.6834 0.2165 13.1136
v  6.6834 0.4352 13.1136
v  5.8941 0.4352 14.2582
v  3.1355 0.9252 7.9132
v  2.9705 0.4352 9.4497
v  8.5532 0.7768 8.4176
v  9.8908 0.8060 6.1358
v  9.8908 0.9010 6.1358
v  8.5532 0.9252 8.4176
v  2.3509 1.2057 -4.2483
v  2.2667 1.2546 -6.5794
v  1.6097 1.1314 -6.3825
v  1.1586 0.9390 -6.8422
v  0.9218 0.8443 -8.2662
v  0.7512 0.6088 -12.4306
v  0.9402 0.7727 -9.8982
v  0.5629 0.3364 -13.8124
v  2.1129 -0.8306 10.4081
v  2.1129 -0.9855 8.0494
v  2.7687 -1.2038 3.6896
v  2.2978 -0.6921 -2.1094
v  2.2424 -0.5981 -3.0816
v  2.3064 -0.5785 -3.5314
v  1.5008 -0.5814 -3.5656
v  0.7284 -0.6704 -6.1549
v  0.7005 -0.6159 -8.4233
v  0.6259 -0.5553 -9.8984
v  0.5933 -0.5621 -12.2310
v  0.3730 -0.3720 -13.7001
v  1.3417 -0.8306 10.3919
v  1.3449 -0.9855 8.0494
v  1.0926 -1.2038 3.6896
v  0.6694 -0.9427 -1.6914
v  2.2404 -0.5596 -2.8766
v  0.2778 -0.5553 -9.8984
v  0.4661 -0.6704 -6.8517
v  0.2586 -0.5621 -12.2310
v  0.2450 -0.3854 -13.7002
v  0.2850 -0.0711 -14.7836
v  0.1865 -0.0959 -15.0781
v  0.1865 0.0082 -15.0781
v  0.3180 0.0082 -14.7836
v  0.1865 0.0843 -15.0781
v  0.2724 0.0638 -14.7836
v  0.0341 -0.0790 -15.3468
v  0.0341 0.0082 -15.3468
v  0.0341 0.1003 -15.3468
v  0.4319 0.5115 -13.8112
v  0.5667 0.8405 -12.4099
v  0.7474 1.2017 -9.8562
v  1.3885 1.4980 -6.6398
v  0.9197 1.3714 -6.9647
v  1.5861 1.4238 -1.5545
v  2.8853 1.1715 -1.1456
v  2.8437 1.1114 -2.9322
v  2.1825 1.1766 4.5689
v  2.5742 1.2514 8.4526
v  2.5742 1.2514 12.8065
v  2.6012 0.6964 13.1233
v  2.6939 0.4352 13.8191
v  0.1705 0.7363 -13.8007
v  0.2901 1.1860 -12.3780
v  0.5153 1.5473 -9.9662
v  0.6176 1.6770 -8.7712
v  0.7137 1.3142 -8.4579
v  0.6938 1.8024 -7.1138
v  0.6582 1.8830 -6.6588
v  0.5168 1.7377 -3.6858
v  0.8320 1.6387 -2.1556
v  1.0926 1.2669 3.5524
v  2.1069 1.2529 8.3719
v  2.5302 5.6926 11.6945
v  2.4225 5.6941 11.6945
v  2.4225 5.6941 13.0720
v  2.5302 5.6926 13.0762
v  0.0933 1.2699 -12.3284
v  0.2693 1.6350 -10.0421
v  0.3354 2.3414 -8.9315
v  0.3092 2.6475 -6.7528
v  0.2699 1.9838 -3.8167
v  0.8522 1.5712 8.8124
v  0.4830 1.3177 3.5524
v  2.4837 0.7124 12.5915
v  2.0809 0.0025 12.3912
v  2.1758 0.7972 12.4851
v  1.3417 0.0025 12.3750
v  5.7658 0.7014 7.7863
v  5.7318 0.9252 7.7798
v  4.1625 0.1197 10.1880
v  4.0644 0.1118 10.7770
v  4.0648 0.4352 10.7774
v  4.1626 0.4352 10.1881
v  2.3207 1.2529 12.8023
v  2.2154 1.2529 10.4190
v  0.3475 2.6158 -7.7615
v  2.3290 -0.0094 -2.7599
v  2.8335 0.6745 -2.9719
# 270 vertices

vn -0.9483 -0.3152 0.0361
vn -0.9531 -0.3004 0.0373
vn -0.7890 -0.6144 -0.0030
vn -0.6808 -0.7301 -0.0586
vn -0.9197 -0.3920 0.0242
vn -0.7479 0.6638 -0.0006
vn -0.9473 -0.3198 -0.0187
vn -0.8741 -0.4852 -0.0228
vn -0.8987 -0.4138 -0.1453
vn -0.6887 -0.6955 -0.2049
vn -0.8741 -0.4685 -0.1285
vn -0.9988 -0.0481 -0.0068
vn -0.5413 -0.8097 -0.2268
vn -0.1617 -0.9519 -0.2603
vn -0.9476 -0.2904 -0.1331
vn -0.9995 0.0097 -0.0314
vn -0.9811 -0.1920 -0.0245
vn -0.9413 -0.3196 -0.1088
vn -0.9733 -0.2291 -0.0125
vn -0.9991 -0.0380 -0.0175
vn -0.9921 0.1069 -0.0657
vn -0.9912 -0.1237 -0.0473
vn -0.9874 -0.1105 -0.1130
vn -0.8722 -0.4835 -0.0735
vn -0.9515 0.0000 0.3075
vn -0.9987 0.0000 0.0503
vn -0.9987 -0.0000 0.0503
vn -0.9643 0.0000 0.2649
vn -0.9960 -0.0813 -0.0365
vn -0.2656 -0.9234 -0.2771
vn -0.5460 -0.7930 -0.2703
vn -0.9903 -0.0593 -0.1259
vn -0.9744 0.2200 -0.0462
vn -0.9881 0.1524 -0.0219
vn -0.9371 0.3442 -0.0586
vn -0.9468 0.2928 -0.1333
vn -0.7491 -0.6625 0.0030
vn -0.8598 -0.5106 0.0013
vn -0.4239 -0.9045 0.0471
vn -0.3356 -0.9416 0.0290
vn -0.9589 -0.2833 0.0165
vn -0.6140 -0.7892 -0.0125
vn -0.9812 -0.1857 -0.0527
vn -0.6858 -0.7242 -0.0728
vn -0.9931 -0.1128 0.0320
vn -0.1760 -0.9485 -0.2635
vn -0.6805 -0.7268 -0.0937
vn -0.5947 -0.8010 0.0683
vn -0.6583 -0.7297 -0.1848
vn -0.1910 -0.9766 -0.0986
vn -0.9212 -0.3890 -0.0100
vn -0.5504 -0.8347 -0.0159
vn -0.2600 -0.9656 0.0037
vn -0.8212 -0.5656 -0.0760
vn -0.8680 -0.4964 -0.0161
vn -0.8611 -0.5045 -0.0638
vn -0.5066 -0.8614 -0.0370
vn -0.4974 -0.8674 -0.0156
vn -0.8668 -0.4892 -0.0967
vn -0.5399 -0.8361 -0.0976
vn 0.0000 -0.9996 0.0272
vn 0.0007 -0.9995 0.0310
vn 0.0000 -1.0000 0.0004
vn -0.0761 -0.9964 -0.0364
vn -0.7198 -0.6927 -0.0445
vn 0.0000 -1.0000 -0.0089
vn -0.0338 -0.9994 -0.0102
vn -0.0007 -0.9996 -0.0285
vn -0.0492 -0.9960 -0.0751
vn -0.0000 -0.9996 0.0272
vn -0.0000 -0.9995 0.0310
vn -0.0000 -1.0000 0.0004
vn -0.0000 -0.9995 -0.0303
vn -0.0000 -0.9998 -0.0220
vn -0.0000 -0.9999 -0.0142
vn -0.0000 -1.0000 -0.0089
vn -0.0000 -0.9996 -0.0275
vn -0.0000 -0.9974 -0.0718
vn -0.9203 -0.3432 -0.1876
vn -0.9798 0.1129 -0.1648
vn -0.9756 -0.0081 -0.2196
vn -0.9785 -0.0000 -0.2063
vn -0.7704 0.6319 -0.0848
vn -0.9732 0.0223 -0.2288
vn -0.9680 -0.0000 -0.2509
vn -0.9680 -0.0000 -0.2511
vn -0.9680 0.0003 -0.2509
vn -0.0000 0.0057 -1.0000
vn 0.0000 -0.0000 -1.0000
vn -0.0000 0.0136 -0.9999
vn -0.9611 0.2455 -0.1269
vn -0.7908 0.5940 -0.1480
vn -0.7208 0.6775 -0.1463
vn -0.7130 0.6818 -0.1636
vn -0.7759 0.6248 -0.0872
vn -0.9097 0.4143 -0.0267
vn -0.8838 0.4662 -0.0400
vn -0.7681 0.6334 -0.0935
vn -0.7856 0.4584 -0.4156
vn -0.8887 0.1306 -0.4396
vn -0.2627 -0.7223 -0.6397
vn -0.3011 0.8773 -0.3737
vn -0.2224 0.9749 -0.0084
vn -0.1896 0.9819 0.0015
vn -0.2196 0.9756 0.0069
vn -0.2961 0.9552 0.0032
vn -0.4938 0.8696 0.0021
vn -0.1416 0.9899 0.0019
vn -0.8882 0.4591 0.0159
vn -0.5384 0.8397 0.0711
vn -0.8856 0.4638 0.0263
vn -0.9178 0.3960 0.0301
vn -0.9921 0.1187 0.0414
vn -0.5401 0.8272 -0.1549
vn -0.6172 0.7705 -0.1596
vn -0.6946 0.7073 -0.1315
vn -0.5663 0.8158 -0.1169
vn -0.9538 0.2999 -0.0170
vn -0.9559 0.2930 -0.0206
vn -0.8897 0.4481 -0.0871
vn -0.5290 0.8486 -0.0065
vn -0.7319 0.6814 0.0021
vn -0.3233 0.9461 0.0210
vn -0.1427 0.9896 -0.0168
vn -0.0717 0.9974 0.0120
vn -0.0142 0.9999 0.0000
vn -0.0142 0.9999 -0.0000
vn 0.0000 0.9864 -0.1642
vn 0.0000 0.9798 -0.2002
vn -0.3481 0.9207 -0.1768
vn -0.2370 0.9638 -0.1222
vn -0.7697 0.6190 -0.1561
vn -0.5967 0.8006 0.0552
vn -0.6524 0.7570 0.0363
vn 0.0000 0.9990 0.0441
vn 0.0000 0.9958 0.0913
vn 0.0835 0.9964 0.0168
vn 0.0000 0.9994 0.0344
vn -0.0000 1.0000 0.0034
vn -0.0860 0.9963 0.0057
vn 0.9952 -0.0506 0.0836
vn 0.5983 -0.6174 0.5107
vn 0.8715 -0.0942 0.4813
vn 0.9912 0.0842 0.1017
vn 0.9969 -0.0597 0.0518
vn 0.7679 -0.6105 0.1940
vn 0.0726 -0.9787 0.1922
vn 0.0471 -0.7013 0.7114
vn 0.3592 -0.4794 0.8008
vn 0.0043 -0.9812 0.1932
vn 0.0000 -0.6308 0.7760
vn 0.0000 0.0278 0.9996
vn -0.0000 -0.9812 0.1932
vn -0.0544 -0.9985 -0.0102
vn -0.0142 -0.9999 -0.0021
vn -0.1045 0.0264 0.9942
vn -0.0130 0.9999 0.0085
vn -0.0014 0.9999 0.0127
vn -0.9116 0.0000 -0.4111
vn -0.0034 -0.9997 0.0239
vn -0.0158 -0.9998 0.0127
vn 0.2708 -0.4811 0.8338
vn 0.0000 1.0000 0.0000
vn 0.0000 1.0000 -0.0000
vn -0.9272 -0.0001 -0.3745
vn -1.0000 0.0099 0.0000
vn 0.0506 -0.1280 0.9905
vn 0.9992 0.0328 0.0226
vn 0.9997 0.0229 0.0000
vn -0.1633 0.8317 -0.5307
vn 0.4346 -0.0061 0.9006
vn 0.1654 -0.7181 0.6759
vn 0.7380 -0.3612 0.5700
vn -0.4491 0.8934 -0.0095
vn -0.9345 0.3541 -0.0372
vn 0.0000 0.9995 0.0300
vn 0.0000 0.9999 -0.0152
vn -0.3355 0.9357 -0.1087
vn 0.0000 0.9544 -0.2985
vn 0.0000 0.9827 -0.1854
vn 0.0000 0.9937 -0.1122
vn -0.8709 0.2139 -0.4425
vn -0.9811 0.1279 -0.1454
vn -0.9183 -0.3826 -0.1013
vn -0.7803 0.6070 -0.1507
vn -0.8172 -0.5667 -0.1049
vn -0.2982 -0.9491 -0.1011
vn -0.0110 -0.9961 -0.0873
vn -0.0000 -0.9963 -0.0862
vn -0.9153 0.4027 -0.0046
vn -0.9145 0.3975 -0.0748
vn -0.9328 -0.0001 -0.3604
vn 0.9970 0.0011 -0.0777
vn -0.9880 -0.1509 -0.0317
vn -0.9165 -0.3689 -0.1546
vn -0.8270 -0.5555 -0.0858
vn -0.9999 0.0000 -0.0109
vn -0.9965 -0.0063 -0.0837
vn 0.0000 -0.0602 0.9982
vn 0.0567 0.9970 0.0530
vn 0.1124 0.9937 0.0023
vn 0.0000 1.0000 0.0056
vn 0.0000 0.9978 0.0658
vn 0.9483 -0.3152 0.0361
vn 0.6808 -0.7301 -0.0586
vn 0.7890 -0.6144 -0.0030
vn 0.9531 -0.3004 0.0373
vn 0.7479 0.6638 -0.0006
vn 0.9197 -0.3920 0.0242
vn 0.8741 -0.4852 -0.0228
vn 0.9473 -0.3198 -0.0187
vn 0.8987 -0.4138 -0.1453
vn 0.9988 -0.0481 -0.0068
vn 0.8741 -0.4685 -0.1285
vn 0.6887 -0.6955 -0.2049
vn 0.5413 -0.8097 -0.2268
vn 0.1617 -0.9519 -0.2603
vn 0.9476 -0.2904 -0.1331
vn 0.9413 -0.3196 -0.1088
vn 0.9811 -0.1920 -0.0245
vn 0.9995 0.0097 -0.0314
vn 0.9733 -0.2291 -0.0125
vn 0.9912 -0.1237 -0.0473
vn 0.9921 0.1069 -0.0657
vn 0.9991 -0.0380 -0.0175
vn 0.8722 -0.4835 -0.0735
vn 0.9874 -0.1105 -0.1130
vn 0.9515 0.0000 0.3075
vn 0.9515 -0.0000 0.3075
vn 0.9987 -0.0000 0.0503
vn 0.9987 0.0000 0.0503
vn 0.9643 -0.0000 0.2649
vn 0.9960 -0.0813 -0.0365
vn 0.2656 -0.9234 -0.2771
vn 0.5460 -0.7930 -0.2703
vn 0.9903 -0.0593 -0.1259
vn 0.9744 0.2200 -0.0462
vn 0.9371 0.3442 -0.0586
vn 0.9881 0.1524 -0.0219
vn 0.9468 0.2928 -0.1333
vn 0.7491 -0.6625 0.0030
vn 0.3356 -0.9416 0.0290
vn 0.4239 -0.9045 0.0471
vn 0.8598 -0.5106 0.0013
vn 0.6140 -0.7892 -0.0125
vn 0.9589 -0.2833 0.0165
vn 0.6858 -0.7242 -0.0728
vn 0.9812 -0.1857 -0.0527
vn 0.9931 -0.1128 0.0320
vn 0.5947 -0.8010 0.0683
vn 0.6805 -0.7268 -0.0937
vn 0.1760 -0.9485 -0.2635
vn 0.6583 -0.7297 -0.1848
vn 0.1910 -0.9766 -0.0986
vn 0.9212 -0.3890 -0.0100
vn 0.8212 -0.5656 -0.0760
vn 0.2600 -0.9656 0.0037
vn 0.5504 -0.8347 -0.0159
vn 0.8680 -0.4964 -0.0161
vn 0.4974 -0.8674 -0.0156
vn 0.5066 -0.8614 -0.0370
vn 0.8611 -0.5045 -0.0638
vn 0.5399 -0.8361 -0.0976
vn 0.8668 -0.4892 -0.0967
vn -0.0007 -0.9995 0.0310
vn 0.0761 -0.9964 -0.0364
vn 0.7198 -0.6927 -0.0445
vn 0.0338 -0.9994 -0.0102
vn 0.0007 -0.9996 -0.0285
vn 0.0492 -0.9960 -0.0751
vn 0.9203 -0.3432 -0.1876
vn 0.9785 -0.0000 -0.2063
vn 0.9756 -0.0081 -0.2196
vn 0.9798 0.1129 -0.1648
vn 0.9732 0.0223 -0.2288
vn 0.7704 0.6319 -0.0848
vn 0.9680 -0.0000 -0.2511
vn 0.9680 -0.0000 -0.2509
vn 0.9680 0.0003 -0.2509
vn 0.9611 0.2455 -0.1269
vn 0.7130 0.6818 -0.1636
vn 0.7208 0.6775 -0.1463
vn 0.7908 0.5940 -0.1480
vn 0.7759 0.6248 -0.0872
vn 0.7681 0.6334 -0.0935
vn 0.8838 0.4662 -0.0400
vn 0.9097 0.4143 -0.0267
vn 0.7856 0.4584 -0.4156
vn 0.3011 0.8773 -0.3737
vn 0.2627 -0.7223 -0.6397
vn 0.8887 0.1306 -0.4396
vn 0.2196 0.9756 0.0069
vn 0.2961 0.9552 0.0032
vn 0.1896 0.9819 0.0015
vn 0.2224 0.9749 -0.0084
vn 0.1416 0.9899 0.0019
vn 0.4938 0.8696 0.0021
vn 0.5384 0.8397 0.0711
vn 0.8882 0.4591 0.0159
vn 0.9921 0.1187 0.0414
vn 0.9178 0.3960 0.0301
vn 0.8856 0.4638 0.0263
vn 0.6172 0.7705 -0.1596
vn 0.5401 0.8272 -0.1549
vn 0.5663 0.8158 -0.1169
vn 0.6946 0.7073 -0.1315
vn 0.9559 0.2930 -0.0206
vn 0.9538 0.2999 -0.0170
vn 0.8897 0.4481 -0.0871
vn 0.7319 0.6814 0.0021
vn 0.5290 0.8486 -0.0065
vn 0.3233 0.9461 0.0210
vn 0.0717 0.9974 0.0120
vn 0.1427 0.9896 -0.0168
vn 0.0142 0.9999 0.0000
vn 0.0142 0.9999 -0.0000
vn 0.2370 0.9638 -0.1222
vn 0.3481 0.9207 -0.1768
vn 0.7697 0.6190 -0.1561
vn 0.6524 0.7570 0.0363
vn 0.5967 0.8006 0.0552
vn -0.0835 0.9964 0.0168
vn 0.0860 0.9963 0.0057
vn -0.8715 -0.0942 0.4813
vn -0.5983 -0.6174 0.5107
vn -0.9952 -0.0506 0.0836
vn -0.9912 0.0842 0.1017
vn -0.9969 -0.0597 0.0518
vn -0.0726 -0.9787 0.1922
vn -0.7679 -0.6105 0.1940
vn -0.3592 -0.4794 0.8008
vn -0.0471 -0.7013 0.7114
vn -0.0043 -0.9812 0.1932
vn 0.0218 -0.9998 -0.0042
vn 0.0778 -0.9969 -0.0137
vn 0.1045 0.0264 0.9942
vn 0.0130 0.9999 0.0085
vn 0.0014 0.9999 0.0127
vn 0.9116 0.0000 -0.4111
vn 0.0158 -0.9998 0.0127
vn 0.0034 -0.9997 0.0239
vn -0.2708 -0.4811 0.8338
vn -0.0000 1.0000 -0.0000
vn -0.0000 1.0000 0.0000
vn 0.9272 -0.0001 -0.3745
vn 1.0000 0.0099 -0.0000
vn -0.0506 -0.1280 0.9905
vn -0.9995 0.0299 0.0131
vn -0.9992 0.0314 0.0248
vn 0.1633 0.8317 -0.5307
vn -0.4346 -0.0061 0.9006
vn -0.1654 -0.7181 0.6759
vn -0.7380 -0.3612 0.5700
vn 0.4491 0.8934 -0.0095
vn 0.9345 0.3541 -0.0372
vn 0.3355 0.9357 -0.1087
vn 0.8709 0.2139 -0.4425
vn 0.9811 0.1279 -0.1454
vn 0.9183 -0.3826 -0.1013
vn 0.7803 0.6070 -0.1507
vn 0.8172 -0.5667 -0.1049
vn 0.2982 -0.9491 -0.1011
vn 0.0110 -0.9961 -0.0873
vn 0.9153 0.4027 -0.0046
vn 0.9145 0.3975 -0.0748
vn 0.9328 -0.0001 -0.3604
vn -0.9970 0.0011 -0.0777
vn 0.9880 -0.1509 -0.0317
vn 0.8270 -0.5555 -0.0858
vn 0.9165 -0.3689 -0.1546
vn 0.9965 -0.0063 -0.0837
vn 0.9999 0.0000 -0.0109
vn -0.0567 0.9970 0.0530
vn -0.1124 0.9937 0.0023
# 374 vertex normals

vt 0.8494 0.7900 0.0000
vt 0.9446 0.7993 0.0000
vt 0.8406 0.8031 0.0000
vt 0.8182 0.7891 0.0000
vt 0.7821 0.8018 0.0000
vt 0.7058 0.7984 0.0000
vt 0.2176 0.9524 0.0000
vt 0.2162 0.9539 0.0000
vt 0.2123 0.9578 0.0000
vt 0.2073 0.9486 0.0000
vt 0.5068 0.7838 0.0000
vt 0.4774 0.7820 0.0000
vt 0.4808 0.7814 0.0000
vt 0.5146 0.7869 0.0000
vt 0.4122 0.7466 0.0000
vt 0.4485 0.7462 0.0000
vt 0.4119 0.7377 0.0000
vt 0.3745 0.7452 0.0000
vt 0.3769 0.7358 0.0000
vt 0.4507 0.7312 0.0000
vt 0.3222 0.7437 0.0000
vt 0.3225 0.7466 0.0000
vt 0.2761 0.7422 0.0000
vt 0.2777 0.7412 0.0000
vt 0.2386 0.7362 0.0000
vt 0.2399 0.7339 0.0000
vt 0.2597 0.9083 0.0000
vt 0.2597 0.9055 0.0000
vt 0.2721 0.9055 0.0000
vt 0.2721 0.9090 0.0000
vt 0.2136 0.9123 0.0000
vt 0.2136 0.9055 0.0000
vt 0.2162 0.8978 0.0000
vt 0.2162 0.9046 0.0000
vt 0.3016 0.9001 0.0000
vt 0.3016 0.8978 0.0000
vt 0.3226 0.8982 0.0000
vt 0.3226 0.8997 0.0000
vt 0.4742 0.7848 0.0000
vt 0.4729 0.7826 0.0000
vt 0.4029 0.7502 0.0000
vt 0.5765 0.2984 0.0000
vt 0.6302 0.2986 0.0000
vt 0.6259 0.3006 0.0000
vt 0.5691 0.3004 0.0000
vt 0.6654 0.3006 0.0000
vt 0.6673 0.2969 0.0000
vt 0.7069 0.2933 0.0000
vt 0.7071 0.2974 0.0000
vt 0.7535 0.2867 0.0000
vt 0.7537 0.2888 0.0000
vt 0.7971 0.7770 0.0000
vt 0.8310 0.7766 0.0000
vt 0.7013 0.7819 0.0000
vt 0.5544 0.7912 0.0000
vt 0.5426 0.7875 0.0000
vt 0.4851 0.7817 0.0000
vt 0.5176 0.7852 0.0000
vt 0.4839 0.7468 0.0000
vt 0.3747 0.7394 0.0000
vt 0.4851 0.7393 0.0000
vt 0.2777 0.7392 0.0000
vt 0.3226 0.7408 0.0000
vt 0.2396 0.7352 0.0000
vt 0.7973 0.7579 0.0000
vt 0.8309 0.7574 0.0000
vt 0.7002 0.7536 0.0000
vt 0.5481 0.7481 0.0000
vt 0.5229 0.7853 0.0000
vt 0.3227 0.7322 0.0000
vt 0.4168 0.7389 0.0000
vt 0.2776 0.7336 0.0000
vt 0.2400 0.7319 0.0000
vt 0.7976 0.7230 0.0000
vt 0.8312 0.7226 0.0000
vt 0.7004 0.7250 0.0000
vt 0.5389 0.7298 0.0000
vt 0.4406 0.7300 0.0000
vt 0.4009 0.7296 0.0000
vt 0.3227 0.7239 0.0000
vt 0.2775 0.7276 0.0000
vt 0.2397 0.7262 0.0000
vt 0.2120 0.7314 0.0000
vt 0.2120 0.7322 0.0000
vt 0.2038 0.7302 0.0000
vt 0.7718 0.2852 0.0000
vt 0.7716 0.2838 0.0000
vt 0.7793 0.2832 0.0000
vt 0.7776 0.2837 0.0000
vt 0.1698 0.9446 0.0000
vt 0.1698 0.9463 0.0000
vt 0.1674 0.9463 0.0000
vt 0.1674 0.9449 0.0000
vt 0.1698 0.9475 0.0000
vt 0.1674 0.9477 0.0000
vt 0.1660 0.9463 0.0000
vt 0.1660 0.9454 0.0000
vt 0.1660 0.9477 0.0000
vt 0.7534 0.2857 0.0000
vt 0.6627 0.2929 0.0000
vt 0.7066 0.2894 0.0000
vt 0.4039 0.7595 0.0000
vt 0.3976 0.7476 0.0000
vt 0.4792 0.3488 0.0000
vt 0.4269 0.3507 0.0000
vt 0.4342 0.3218 0.0000
vt 0.5208 0.3347 0.0000
vt 0.5781 0.3335 0.0000
vt 0.5781 0.3047 0.0000
vt 0.2058 0.3548 0.0000
vt 0.2707 0.3233 0.0000
vt 0.1569 0.3529 0.0000
vt 0.1576 0.3488 0.0000
vt 0.0513 0.3469 0.0000
vt 0.0781 0.3378 0.0000
vt 0.0865 0.3376 0.0000
vt 0.7533 0.2819 0.0000
vt 0.7835 0.2812 0.0000
vt 0.6640 0.2914 0.0000
vt 0.7066 0.2858 0.0000
vt 0.6326 0.2966 0.0000
vt 0.6352 0.2922 0.0000
vt 0.1887 0.9698 0.0000
vt 0.1778 0.9745 0.0000
vt 0.1813 0.9678 0.0000
vt 0.4971 0.2942 0.0000
vt 0.5744 0.2949 0.0000
vt 0.4513 0.2960 0.0000
vt 0.1584 0.3434 0.0000
vt 0.2956 0.3020 0.0000
vt 0.0937 0.3444 0.0000
vt 0.0791 0.3360 0.0000
vt 0.0888 0.3299 0.0000
vt 0.0934 0.3416 0.0000
vt 0.7532 0.2785 0.0000
vt 0.7863 0.2799 0.0000
vt 0.6669 0.2851 0.0000
vt 0.7065 0.2820 0.0000
vt 0.6356 0.2862 0.0000
vt 0.4999 0.2879 0.0000
vt 0.5780 0.2872 0.0000
vt 0.4522 0.2766 0.0000
vt 0.5020 0.2795 0.0000
vt 0.1602 0.2888 0.0000
vt 0.1597 0.2742 0.0000
vt 0.2988 0.2758 0.0000
vt 0.2974 0.2918 0.0000
vt 0.0530 0.3471 0.0000
vt 0.0865 0.3407 0.0000
vt 0.0896 0.3341 0.0000
vt 0.9037 0.7777 0.0000
vt 0.1996 0.9123 0.0000
vt 0.1880 0.9123 0.0000
vt 0.2011 0.8998 0.0000
vt 0.2060 0.9011 0.0000
vt 0.9037 0.7593 0.0000
vt 0.1918 0.7889 0.0000
vt 0.1689 0.7889 0.0000
vt 0.1689 0.7770 0.0000
vt 0.2050 0.7764 0.0000
vt 0.9040 0.7245 0.0000
vt 0.5543 0.7991 0.0000
vt 0.7838 0.8857 0.0000
vt 0.7961 0.9519 0.0000
vt 0.7375 0.9785 0.0000
vt 0.2571 0.8978 0.0000
vt 0.2577 0.9013 0.0000
vt 0.2435 0.5281 0.0000
vt 0.1941 0.5012 0.0000
vt 0.2079 0.4353 0.0000
vt 0.2123 0.9646 0.0000
vt 0.3226 0.9589 0.0000
vt 0.3226 0.9603 0.0000
vt 0.9600 0.8773 0.0000
vt 0.8706 0.8334 0.0000
vt 0.9312 0.8950 0.0000
vt 0.8593 0.8351 0.0000
vt 0.2093 0.9083 0.0000
vt 0.2093 0.9055 0.0000
vt 0.1175 0.3828 0.0000
vt 0.0605 0.4445 0.0000
vt 0.1337 0.3863 0.0000
vt 0.0333 0.4255 0.0000
vt 0.2721 0.9496 0.0000
vt 0.2721 0.9530 0.0000
vt 0.2324 0.9530 0.0000
vt 0.2324 0.9480 0.0000
vt 0.0356 0.4237 0.0000
vt 0.0568 0.4391 0.0000
vt 0.1278 0.3879 0.0000
vt 0.0471 0.3720 0.0000
vt 0.2074 0.8927 0.0000
vt 0.2034 0.8926 0.0000
vt 0.2050 0.8227 0.0000
vt 0.2067 0.8227 0.0000
vt 0.1022 0.3728 0.0000
vt 0.1230 0.3720 0.0000
vt 0.0834 0.4099 0.0000
vt 0.0809 0.3744 0.0000
vt 0.0612 0.4045 0.0000
vt 0.8533 0.7840 0.0000
vt 0.8534 0.7903 0.0000
vt 0.8479 0.7878 0.0000
vt 0.8452 0.7801 0.0000
vt 0.2078 0.9014 0.0000
vt 0.5799 0.3006 0.0000
vt 0.5835 0.2967 0.0000
vt 0.3987 0.7445 0.0000
vt 0.6087 0.2869 0.0000
vt 0.5793 0.2773 0.0000
vt 0.6131 0.2784 0.0000
vt 0.6359 0.2784 0.0000
vt 0.6681 0.2786 0.0000
vt 0.7067 0.2784 0.0000
vt 0.1851 0.9609 0.0000
vt 0.1922 0.9640 0.0000
vt 0.1974 0.7269 0.0000
vt 0.1931 0.7245 0.0000
vt 0.2136 0.9530 0.0000
vt 0.2136 0.9462 0.0000
vt 0.2309 0.9479 0.0000
vt 0.2309 0.9530 0.0000
vt 0.5258 0.7877 0.0000
vt 0.5194 0.7987 0.0000
vt 0.2116 0.9637 0.0000
vt 0.2115 0.9568 0.0000
vt 0.5204 0.7990 0.0000
vt 0.1698 0.7734 0.0000
vt 0.2073 0.7692 0.0000
vt 0.1303 0.3228 0.0000
vt 0.0891 0.3266 0.0000
vt 0.0909 0.2728 0.0000
vt 0.1329 0.2732 0.0000
vt 0.8508 0.6582 0.0000
vt 0.8193 0.6585 0.0000
vt 0.8314 0.6493 0.0000
vt 0.9425 0.6502 0.0000
vt 0.7036 0.6565 0.0000
vt 0.7849 0.6494 0.0000
vt 0.1143 0.9524 0.0000
vt 0.1246 0.9486 0.0000
vt 0.1196 0.9578 0.0000
vt 0.1157 0.9539 0.0000
vt 0.5049 0.6674 0.0000
vt 0.5104 0.6772 0.0000
vt 0.4829 0.6676 0.0000
vt 0.4795 0.6624 0.0000
vt 0.4365 0.7004 0.0000
vt 0.4518 0.7001 0.0000
vt 0.4097 0.7117 0.0000
vt 0.4314 0.7029 0.0000
vt 0.3744 0.7037 0.0000
vt 0.3748 0.7005 0.0000
vt 0.3232 0.7037 0.0000
vt 0.2740 0.7053 0.0000
vt 0.2724 0.7042 0.0000
vt 0.3235 0.7006 0.0000
vt 0.2393 0.7134 0.0000
vt 0.2384 0.7099 0.0000
vt 0.0722 0.9083 0.0000
vt 0.0598 0.9090 0.0000
vt 0.0598 0.9055 0.0000
vt 0.0722 0.9055 0.0000
vt 0.1183 0.9123 0.0000
vt 0.1157 0.9046 0.0000
vt 0.1157 0.8978 0.0000
vt 0.1183 0.9055 0.0000
vt 0.0303 0.9001 0.0000
vt 0.0093 0.8997 0.0000
vt 0.0093 0.8982 0.0000
vt 0.0303 0.8978 0.0000
vt 0.4668 0.6646 0.0000
vt 0.4685 0.6669 0.0000
vt 0.4044 0.7089 0.0000
vt 0.5838 0.2541 0.0000
vt 0.5865 0.2556 0.0000
vt 0.6224 0.2544 0.0000
vt 0.6281 0.2562 0.0000
vt 0.6675 0.2558 0.0000
vt 0.7069 0.2611 0.0000
vt 0.7071 0.2650 0.0000
vt 0.6681 0.2595 0.0000
vt 0.7535 0.2676 0.0000
vt 0.7533 0.2691 0.0000
vt 0.8321 0.6687 0.0000
vt 0.7981 0.6690 0.0000
vt 0.7013 0.6698 0.0000
vt 0.5383 0.6786 0.0000
vt 0.5560 0.6582 0.0000
vt 0.5133 0.6791 0.0000
vt 0.4849 0.6681 0.0000
vt 0.4844 0.7005 0.0000
vt 0.4340 0.7138 0.0000
vt 0.3717 0.7068 0.0000
vt 0.3229 0.7069 0.0000
vt 0.2777 0.7114 0.0000
vt 0.2398 0.7155 0.0000
vt 0.8315 0.6879 0.0000
vt 0.7979 0.6882 0.0000
vt 0.7011 0.6961 0.0000
vt 0.5469 0.7084 0.0000
vt 0.5186 0.6793 0.0000
vt 0.3228 0.7156 0.0000
vt 0.4160 0.7197 0.0000
vt 0.2776 0.7198 0.0000
vt 0.2398 0.7187 0.0000
vt 0.2119 0.7167 0.0000
vt 0.2043 0.7189 0.0000
vt 0.2119 0.7159 0.0000
vt 0.7719 0.2735 0.0000
vt 0.7778 0.2754 0.0000
vt 0.7718 0.2746 0.0000
vt 0.1621 0.9446 0.0000
vt 0.1645 0.9449 0.0000
vt 0.1645 0.9463 0.0000
vt 0.1621 0.9463 0.0000
vt 0.1645 0.9477 0.0000
vt 0.1621 0.9475 0.0000
vt 0.7533 0.2704 0.0000
vt 0.7067 0.2682 0.0000
vt 0.6644 0.2618 0.0000
vt 0.4045 0.7009 0.0000
vt 0.3977 0.7050 0.0000
vt 0.5810 0.2214 0.0000
vt 0.5811 0.2452 0.0000
vt 0.4332 0.2325 0.0000
vt 0.5193 0.2209 0.0000
vt 0.4307 0.2034 0.0000
vt 0.4687 0.2050 0.0000
vt 0.2650 0.2237 0.0000
vt 0.2051 0.1993 0.0000
vt 0.1608 0.2044 0.0000
vt 0.1543 0.2027 0.0000
vt 0.0924 0.2126 0.0000
vt 0.0838 0.2114 0.0000
vt 0.0509 0.2039 0.0000
vt 0.7831 0.2782 0.0000
vt 0.7532 0.2744 0.0000
vt 0.7068 0.2722 0.0000
vt 0.6650 0.2644 0.0000
vt 0.6335 0.2620 0.0000
vt 0.6313 0.2581 0.0000
vt 0.1432 0.9698 0.0000
vt 0.1506 0.9678 0.0000
vt 0.1542 0.9745 0.0000
vt 0.5730 0.2582 0.0000
vt 0.4937 0.2640 0.0000
vt 0.4516 0.2533 0.0000
vt 0.2954 0.2489 0.0000
vt 0.1606 0.2079 0.0000
vt 0.1020 0.2078 0.0000
vt 0.1025 0.2108 0.0000
vt 0.0858 0.2162 0.0000
vt 0.0853 0.2134 0.0000
vt 0.7067 0.2760 0.0000
vt 0.6662 0.2709 0.0000
vt 0.6351 0.2706 0.0000
vt 0.5765 0.2675 0.0000
vt 0.4980 0.2707 0.0000
vt 0.1592 0.2598 0.0000
vt 0.2983 0.2616 0.0000
vt 0.0985 0.2153 0.0000
vt 0.1051 0.2263 0.0000
vt 0.0497 0.2069 0.0000
vt 0.9049 0.6714 0.0000
vt 0.1323 0.9123 0.0000
vt 0.1260 0.9011 0.0000
vt 0.1298 0.8998 0.0000
vt 0.1430 0.9123 0.0000
vt 0.9043 0.6897 0.0000
vt 0.1468 0.7889 0.0000
vt 0.1337 0.7764 0.0000
vt 0.5561 0.6503 0.0000
vt 0.7356 0.4703 0.0000
vt 0.7940 0.4958 0.0000
vt 0.7821 0.5677 0.0000
vt 0.0743 0.9013 0.0000
vt 0.0748 0.8978 0.0000
vt 0.1935 0.0499 0.0000
vt 0.2479 0.0242 0.0000
vt 0.2070 0.1239 0.0000
vt 0.1196 0.9646 0.0000
vt 0.0093 0.9603 0.0000
vt 0.0093 0.9589 0.0000
vt 0.8551 0.6152 0.0000
vt 0.9306 0.5542 0.0000
vt 0.9589 0.5698 0.0000
vt 0.8709 0.6162 0.0000
vt 0.1226 0.9083 0.0000
vt 0.1226 0.9055 0.0000
vt 0.0322 0.1245 0.0000
vt 0.0660 0.1091 0.0000
vt 0.1191 0.1706 0.0000
vt 0.1347 0.1689 0.0000
vt 0.0598 0.9496 0.0000
vt 0.0995 0.9480 0.0000
vt 0.0995 0.9530 0.0000
vt 0.0598 0.9530 0.0000
vt 0.1058 0.1677 0.0000
vt 0.0758 0.1348 0.0000
vt 0.0564 0.1346 0.0000
vt 0.0764 0.1728 0.0000
vt 0.1245 0.8927 0.0000
vt 0.1252 0.8227 0.0000
vt 0.1269 0.8227 0.0000
vt 0.1285 0.8926 0.0000
vt 0.0496 0.1783 0.0000
vt 0.0358 0.1278 0.0000
vt 0.0667 0.1122 0.0000
vt 0.0954 0.1752 0.0000
vt 0.1254 0.1637 0.0000
vt 0.8545 0.6645 0.0000
vt 0.8463 0.6678 0.0000
vt 0.8491 0.6603 0.0000
vt 0.8546 0.6582 0.0000
vt 0.1241 0.9014 0.0000
vt 0.5807 0.2582 0.0000
vt 0.5811 0.2561 0.0000
vt 0.4075 0.7072 0.0000
vt 0.6085 0.2683 0.0000
vt 0.1468 0.9609 0.0000
vt 0.1397 0.9640 0.0000
vt 0.1974 0.7224 0.0000
vt 0.1183 0.9530 0.0000
vt 0.1010 0.9530 0.0000
vt 0.1011 0.9479 0.0000
vt 0.1183 0.9462 0.0000
vt 0.5216 0.6772 0.0000
vt 0.5092 0.6504 0.0000
vt 0.1204 0.9568 0.0000
vt 0.1203 0.9637 0.0000
vt 0.5102 0.6502 0.0000
vt 0.1324 0.7692 0.0000
vt 0.1314 0.2281 0.0000
vt 0.0888 0.2237 0.0000
# 435 texture coords

g Box001
usemtl 01___Default
s 2
f 1/1/1 2/2/2 3/3/3 4/4/4 
f 4/4/4 3/3/3 5/5/5 6/6/6 
f 6/7/6 5/8/5 7/9/7 8/10/8 
f 9/11/9 10/12/10 11/13/11 12/14/12 
f 13/15/13 14/16/14 11/13/11 10/12/10 
f 15/17/15 16/18/16 17/19/17 18/20/18 
f 19/21/19 20/22/20 21/23/21 22/24/22 
f 21/23/21 23/25/23 24/26/24 22/24/22 
f 25/27/25 26/28/25 27/29/25 28/30/25 
f 3/31/3 29/32/26 30/33/27 5/34/5 
f 31/35/28 32/36/28 33/37/28 34/38/28 
f 35/39/29 36/40/30 10/12/10 9/11/9 
f 36/40/30 37/41/31 13/15/13 10/12/10 
f 38/42/32 39/43/33 16/44/16 15/45/15 
f 20/46/20 40/47/34 41/48/35 21/49/21 
f 21/49/21 41/48/35 42/50/36 23/51/23 
s 8
f 1/1/37 4/4/38 43/52/39 44/53/40 
f 4/4/38 6/6/41 45/54/42 43/52/39 
f 6/6/41 8/55/43 46/56/44 45/54/42 
f 12/14/45 11/13/46 47/57/47 48/58/48 
f 14/16/49 49/59/50 47/57/47 11/13/46 
f 17/19/51 50/60/52 51/61/53 18/20/54 
f 19/21/55 22/24/56 52/62/57 53/63/58 
f 22/24/56 24/26/59 54/64/60 52/62/57 
f 44/53/40 43/52/39 55/65/61 56/66/62 
f 43/52/39 45/54/42 57/67/63 55/65/61 
f 45/54/42 46/56/44 58/68/64 57/67/63 
f 48/58/48 47/57/47 49/59/50 59/69/65 
f 46/56/44 59/69/65 49/59/50 58/68/64 
f 50/60/52 53/63/58 60/70/66 61/71/67 
f 51/61/53 50/60/52 61/71/67 
f 53/63/58 52/62/57 62/72/68 60/70/66 
f 54/64/60 63/73/69 62/72/68 52/62/57 
f 55/65/61 64/74/70 65/75/71 56/66/62 
f 57/67/63 66/76/72 64/74/70 55/65/61 
f 58/68/64 67/77/73 66/76/72 57/67/63 
f 58/68/64 68/78/74 67/77/73 
f 61/71/67 69/79/75 68/78/74 58/68/64 
f 60/70/66 70/80/76 69/79/75 61/71/67 
f 62/72/68 71/81/77 70/80/76 60/70/66 
f 63/73/69 72/82/78 71/81/77 62/72/68 
s 16
f 73/83/79 74/84/80 75/85/81 76/85/82 
f 74/86/80 77/87/83 78/88/84 75/89/81 
f 76/90/82 75/91/81 79/92/85 80/93/86 
f 75/91/81 78/94/84 81/95/87 79/92/85 
f 79/92/85 82/96/88 83/97/89 80/93/86 
f 81/95/87 84/98/90 82/96/88 79/92/85 
s 32
f 77/87/91 42/50/92 85/99/93 78/88/94 
f 41/48/95 40/47/96 86/100/97 87/101/98 
f 88/102/99 89/103/100 37/41/101 36/40/102 
f 90/104/103 91/105/104 92/106/105 35/107/106 
f 36/108/102 35/107/106 92/106/105 88/109/99 
f 91/105/104 30/110/107 93/111/108 92/106/105 
f 30/110/107 29/112/109 94/113/110 93/111/108 
f 29/112/109 95/114/111 96/115/112 97/116/113 
f 29/112/109 97/116/113 94/113/110 
f 78/88/94 85/99/93 98/117/114 81/118/115 
f 87/101/98 86/100/97 99/119/116 100/120/117 
f 86/100/97 101/121/118 102/122/119 99/119/116 
f 88/123/99 103/124/120 89/125/100 
f 88/109/99 92/106/105 104/126/121 105/127/122 
f 92/106/105 106/128/123 104/126/121 
f 93/111/108 94/113/110 107/129/124 108/130/125 
f 109/131/126 110/132/127 111/133/127 112/134/126 
f 81/118/115 98/117/114 113/135/128 84/136/129 
f 100/120/117 99/119/116 114/137/130 115/138/131 
f 99/119/116 102/122/119 116/139/132 114/137/130 
f 104/126/121 117/140/133 118/141/134 105/127/122 
f 119/142/135 120/143/136 117/140/133 106/128/123 
f 104/126/121 106/128/123 117/140/133 
f 121/144/137 122/145/138 123/146/139 124/147/140 
s 64
f 2/148/141 125/149/142 126/150/143 96/115/144 
f 95/114/145 2/148/141 96/115/144 
f 125/151/142 2/2/141 1/1/146 44/53/147 
f 125/152/142 127/153/148 128/154/149 126/155/143 
f 125/151/142 44/53/147 56/66/150 127/156/148 
f 127/157/148 129/158/151 130/159/152 128/160/149 
f 56/66/150 65/75/153 129/161/151 127/156/148 
s off
f 7/162/154 5/5/154 131/163/154 31/164/154 
f 7/162/155 31/164/155 34/165/155 
f 5/34/156 30/33/156 132/166/156 131/167/156 
f 91/105/157 33/168/157 32/169/157 132/170/157 
f 30/110/158 91/105/158 132/170/158 
f 91/171/159 7/9/159 34/172/159 33/173/159 
f 3/3/160 2/2/160 25/174/160 133/175/160 
f 25/174/161 28/176/161 134/177/161 133/175/161 
f 2/178/162 95/179/162 26/28/162 25/27/162 
f 95/114/163 29/112/163 135/180/163 27/181/163 
f 135/180/163 136/182/163 27/181/163 
f 95/114/164 27/181/164 26/183/164 
f 28/184/165 27/185/165 136/186/165 134/187/165 
f 94/188/166 97/189/166 110/190/166 109/191/166 
f 97/192/167 137/193/167 111/194/167 110/195/167 
f 138/196/168 107/197/168 112/198/168 137/199/168 
f 137/199/169 112/198/169 111/200/169 
f 107/129/170 94/113/170 109/131/170 112/134/170 
f 32/36/171 31/35/171 131/167/171 132/166/171 
s 64
f 137/201/172 97/202/173 126/203/143 128/204/149 
f 126/155/143 97/192/173 96/205/144 
s 32
f 101/121/118 89/206/100 103/207/120 102/122/119 
s 2
f 37/41/31 38/208/32 15/17/15 13/15/13 
f 13/15/13 15/17/15 18/20/18 14/16/14 
s 8
f 18/20/54 51/61/53 49/59/50 14/16/49 
f 49/59/50 51/61/53 61/71/67 58/68/64 
s 32
f 118/141/134 139/209/174 103/207/120 105/127/122 
s off
f 139/209/175 116/139/175 102/122/175 103/207/175 
s 32
f 120/143/136 140/210/176 118/141/134 117/140/133 
f 140/210/176 141/211/177 139/209/174 118/141/134 
s off
f 141/211/178 142/212/178 116/139/178 139/209/178 
s 32
f 142/212/179 143/213/180 114/137/130 116/139/132 
f 143/213/180 144/214/181 115/138/131 114/137/130 
f 38/215/182 37/216/101 89/125/100 
s 2
f 74/84/183 73/83/184 24/26/24 23/25/23 
f 77/87/185 74/86/183 23/51/23 42/50/36 
s 8
f 73/83/186 76/85/187 54/64/60 24/26/59 
f 76/85/187 80/217/188 63/73/69 54/64/60 
f 80/217/188 83/218/189 72/82/78 63/73/69 
s 32
f 41/48/95 87/101/98 85/99/93 42/50/92 
f 87/101/98 100/120/117 98/117/114 85/99/93 
f 98/117/114 100/120/117 115/138/131 144/214/181 
f 98/117/114 144/214/181 113/135/128 
f 86/100/97 40/47/96 39/43/190 101/121/118 
s 2
f 40/47/34 20/46/20 16/44/16 39/43/33 
f 20/22/20 19/21/19 17/19/17 16/18/16 
s 8
f 19/21/55 53/63/58 50/60/52 17/19/51 
s off
f 38/42/191 89/206/191 101/121/191 39/43/191 
s 32
f 92/106/105 93/111/108 108/130/125 106/128/123 
f 106/128/123 108/130/125 124/147/140 123/146/139 
f 106/128/123 123/146/139 119/142/135 
f 88/109/99 105/127/122 103/207/120 
s off
f 29/219/192 3/220/192 133/221/192 135/222/192 
f 135/222/193 133/221/193 134/187/193 136/186/193 
s 8
f 46/56/44 8/55/43 145/223/194 59/69/65 
s 2
f 8/55/8 7/162/7 146/224/195 145/223/196 
f 7/9/7 91/171/197 90/225/198 146/226/195 
s 8
f 59/69/65 145/223/194 12/14/45 48/58/48 
s 2
f 145/223/196 146/224/195 9/11/9 12/14/12 
f 146/224/195 90/227/198 35/39/29 9/11/9 
s 32
f 124/147/140 108/130/125 107/129/124 121/144/137 
s 68
f 147/228/199 137/229/172 128/160/149 130/159/152 
s 32
f 138/230/200 137/231/201 147/232/202 148/233/203 
f 121/144/137 107/129/124 138/230/200 148/233/203 
f 122/145/138 121/144/137 148/233/203 
s 2
f 149/234/204 150/235/205 151/236/206 152/237/207 
f 150/235/205 153/238/208 154/239/209 151/236/206 
f 153/240/208 155/241/210 156/242/211 154/243/209 
f 157/244/212 158/245/213 159/246/214 160/247/215 
f 161/248/216 160/247/215 159/246/214 162/249/217 
f 163/250/218 164/251/219 165/252/220 166/253/221 
f 167/254/222 168/255/223 169/256/224 170/257/225 
f 169/256/224 168/255/223 171/258/226 172/259/227 
f 173/260/228 174/261/229 175/262/228 176/263/228 
f 151/264/206 154/265/209 177/266/230 178/267/231 
f 179/268/232 180/269/232 181/270/232 182/271/232 
f 183/272/233 157/244/212 160/247/215 184/273/234 
f 184/273/234 160/247/215 161/248/216 185/274/235 
f 186/275/236 163/276/218 166/277/221 187/278/237 
f 170/279/225 169/280/224 188/281/238 189/282/239 
f 169/280/224 172/283/227 190/284/240 188/281/238 
s 8
f 149/234/241 191/285/242 192/286/243 150/235/244 
f 150/235/244 192/286/243 193/287/245 153/238/246 
f 153/238/246 193/287/245 194/288/247 155/289/248 
f 158/245/249 195/290/250 196/291/251 159/246/252 
f 162/249/253 159/246/252 196/291/251 197/292/254 
f 165/252/255 164/251/256 198/293/257 199/294/258 
f 167/254/259 200/295/260 201/296/261 168/255/262 
f 168/255/262 201/296/261 202/297/263 171/258/264 
f 191/285/242 203/298/265 204/299/70 192/286/243 
f 192/286/243 204/299/70 205/300/72 193/287/245 
f 193/287/245 205/300/72 206/301/266 194/288/247 
f 194/288/247 206/301/266 197/292/254 207/302/267 
f 197/292/254 196/291/251 195/290/250 207/302/267 
f 208/303/76 200/295/260 199/294/258 209/304/268 
f 198/293/257 209/304/268 199/294/258 
f 200/295/260 208/303/76 210/305/269 201/296/261 
f 202/297/263 201/296/261 210/305/269 211/306/270 
f 204/299/70 203/298/265 65/75/71 64/74/70 
f 205/300/72 204/299/70 64/74/70 66/76/72 
f 206/301/266 205/300/72 66/76/72 67/77/73 
f 206/301/266 67/77/73 68/78/74 
f 209/304/268 206/301/266 68/78/74 69/79/75 
f 208/303/76 209/304/268 69/79/75 70/80/76 
f 210/305/269 208/303/76 70/80/76 71/81/77 
f 211/306/270 210/305/269 71/81/77 72/82/78 
s 16
f 212/307/271 213/308/272 214/308/273 215/309/274 
f 215/310/274 214/311/273 216/311/275 217/312/276 
f 213/313/272 218/314/277 219/315/278 214/316/273 
f 214/316/273 219/315/278 220/317/279 216/318/275 
f 219/315/278 218/314/277 83/97/89 82/96/88 
f 220/317/279 219/315/278 82/96/88 84/98/90 
s 32
f 217/312/280 216/311/281 221/319/282 190/284/283 
f 188/281/284 222/320/285 223/321/286 189/282/287 
f 224/322/288 184/273/289 185/274/290 225/323/291 
f 184/324/289 224/325/288 226/326/292 183/327/293 
f 226/326/292 227/328/294 228/329/295 183/327/293 
f 227/328/294 226/326/292 229/330/296 177/331/297 
f 177/331/297 229/330/296 230/332/298 178/333/299 
f 178/333/299 230/332/298 231/334/300 232/335/301 
f 178/333/299 232/335/301 233/336/302 
f 216/311/281 220/337/303 234/338/304 221/319/282 
f 222/320/285 235/339/305 236/340/306 223/321/286 
f 223/321/286 236/340/306 237/341/307 238/342/308 
f 224/343/288 225/344/291 239/345/309 
f 224/325/288 240/346/310 241/347/311 226/326/292 
f 226/326/292 241/347/311 242/348/312 
f 229/330/296 243/349/313 244/350/314 230/332/298 
f 245/351/315 246/352/315 247/353/316 248/354/316 
f 220/337/303 84/136/129 113/135/128 234/338/304 
f 235/339/305 249/355/317 250/356/318 236/340/306 
f 236/340/306 250/356/318 251/357/319 237/341/307 
f 241/347/311 240/346/310 252/358/320 253/359/321 
f 253/359/321 120/143/136 119/142/135 242/348/312 
f 241/347/311 253/359/321 242/348/312 
f 254/360/322 255/361/323 123/146/139 122/145/138 
s 64
f 256/362/324 257/363/325 152/364/326 232/335/327 
f 233/336/328 232/335/327 152/364/326 
f 257/365/325 191/285/329 149/234/330 152/237/326 
f 257/366/325 256/367/324 258/368/331 259/369/332 
f 257/365/325 259/370/332 203/298/333 191/285/329 
f 259/371/332 258/372/331 130/159/152 129/158/151 
f 203/298/333 259/370/332 129/161/151 65/75/153 
s off
f 156/373/334 180/374/334 179/375/334 260/376/334 
f 156/373/335 260/376/335 154/239/335 
f 154/265/336 260/377/336 261/378/336 177/266/336 
f 182/379/337 181/380/337 227/328/337 261/381/337 
f 177/331/338 261/381/338 227/328/338 
f 227/382/339 181/383/339 180/384/339 156/242/339 
f 262/385/340 174/386/340 173/387/340 263/388/340 
f 151/236/341 263/388/341 173/387/341 152/237/341 
f 152/389/342 173/260/342 176/263/342 233/390/342 
f 233/336/343 176/391/343 175/392/343 264/393/343 
f 175/392/344 265/394/344 264/393/344 
f 233/336/343 264/393/343 178/333/343 
f 174/395/345 262/396/345 265/397/345 175/398/345 
f 230/399/346 245/400/346 248/401/346 231/402/346 
f 231/403/347 248/404/347 247/405/347 266/406/347 
f 266/407/348 247/408/348 246/409/348 267/410/348 
f 246/409/349 244/411/349 267/410/349 
f 244/350/350 246/352/350 245/351/350 230/332/350 
f 182/271/351 261/378/351 260/377/351 179/268/351 
s 64
f 266/412/352 258/413/331 256/414/324 231/415/353 
f 256/367/324 232/416/327 231/403/353 
s 32
f 238/342/308 237/341/307 239/417/309 225/418/291 
s 2
f 185/274/235 161/248/216 163/250/218 186/419/236 
f 161/248/216 162/249/217 164/251/219 163/250/218 
s 8
f 164/251/256 162/249/253 197/292/254 198/293/257 
f 197/292/254 206/301/266 209/304/268 198/293/257 
s 32
f 252/358/320 240/346/310 239/417/309 268/420/354 
s off
f 268/420/355 239/417/355 237/341/355 251/357/355 
s 32
f 120/143/136 253/359/321 252/358/320 140/210/176 
f 140/210/176 252/358/320 268/420/354 141/211/177 
s off
f 141/211/356 268/420/356 251/357/356 142/212/356 
s 32
f 142/212/179 251/357/319 250/356/318 143/213/180 
f 143/213/180 250/356/318 249/355/317 144/214/181 
f 186/421/357 225/344/291 185/422/290 
s 2
f 215/309/358 172/259/227 171/258/226 212/307/359 
f 217/312/360 190/284/240 172/283/227 215/310/358 
s 8
f 212/307/361 171/258/264 202/297/263 213/308/362 
f 213/308/362 202/297/263 211/306/270 218/423/363 
f 218/423/363 211/306/270 72/82/78 83/218/189 
s 32
f 188/281/284 190/284/283 221/319/282 222/320/285 
f 222/320/285 221/319/282 234/338/304 235/339/305 
f 234/338/304 113/135/128 144/214/181 249/355/317 
f 234/338/304 249/355/317 235/339/305 
f 223/321/286 238/342/308 187/278/364 189/282/287 
s 2
f 189/282/239 187/278/237 166/277/221 170/279/225 
f 170/257/225 166/253/221 165/252/220 167/254/222 
s 8
f 167/254/259 165/252/255 199/294/258 200/295/260 
s off
f 186/275/365 187/278/365 238/342/365 225/418/365 
s 32
f 226/326/292 242/348/312 243/349/313 229/330/296 
f 242/348/312 119/142/135 123/146/139 255/361/323 
f 242/348/312 255/361/323 243/349/313 
f 224/325/288 239/417/309 240/346/310 
s off
f 178/424/366 264/425/366 263/426/366 151/427/366 
f 264/425/367 265/397/367 262/396/367 263/426/367 
s 8
f 194/288/247 207/302/267 269/428/368 155/289/248 
s 2
f 155/289/210 269/428/369 270/429/370 156/373/211 
f 156/242/211 270/430/370 228/431/371 227/382/372 
s 8
f 207/302/267 195/290/250 158/245/249 269/428/368 
s 2
f 269/428/369 158/245/213 157/244/212 270/429/370 
f 270/429/370 157/244/212 183/272/233 228/432/371 
s 32
f 255/361/323 254/360/322 244/350/314 243/349/313 
s 68
f 147/228/199 130/159/152 258/372/331 266/433/352 
s 32
f 267/434/373 148/233/203 147/232/202 266/435/374 
f 267/434/373 244/350/314 254/360/322 148/233/203 
f 122/145/138 148/233/203 254/360/322 
# 250 polygons - 36 triangles

