version 1
nodes
  0 "HueyBaked"  -1
  1 "MainBody"  -1
  2 "Tail"   1
  3 "BackPropeller"   2
  4 "TopPropeller"   1
end
skeleton
time 0
  0 0.000001 2.183670 4.044439 -1.570796 0.000000 -0.000000
  1 0.000000 1.274563 0.006851 -1.570796 -1.477571 1.570796
  2 10.129575 -0.000001 -0.000001 0.000000 0.000000 0.869115
  3 2.187602 0.001962 -0.187651 2.179252 -1.570796 0.000000
  4 1.158064 1.667789 -0.000000 0.000001 0.000000 1.477571
time 1
  0 0.000001 2.183670 4.044439 -1.570796 0.000000 -0.000000
  1 0.000000 1.274563 0.006851 -1.570796 -1.477571 1.570796
  2 10.129575 -0.000001 -0.000001 0.000000 0.000000 0.869115
  3 2.187602 0.001962 -0.187651 1.132062 -1.570796 0.000000
  4 1.158064 1.667789 -0.000000 -1.256301 0.000000 1.477571
time 2
  0 0.000001 2.183670 4.044439 -1.570796 0.000000 -0.000000
  1 0.000000 1.274563 0.006851 -1.570796 -1.477571 1.570796
  2 10.129575 -0.000001 -0.000001 0.000000 0.000000 0.869115
  3 2.187602 0.001962 -0.187651 0.084872 -1.570796 0.000000
  4 1.158064 1.667789 -0.000000 -2.512601 0.000000 1.477572
time 3
  0 0.000001 2.183670 4.044439 -1.570796 0.000000 -0.000000
  1 0.000000 1.274563 0.006851 -1.570796 -1.477571 1.570796
  2 10.129575 -0.000001 -0.000001 0.000000 0.000000 0.869115
  3 2.187602 0.001962 -0.187651 -0.962318 -1.570796 0.000000
  4 1.158064 1.667789 -0.000000 2.514283 0.000000 1.477571
time 4
  0 0.000001 2.183670 4.044439 -1.570796 0.000000 -0.000000
  1 0.000000 1.274563 0.006851 -1.570796 -1.477571 1.570796
  2 10.129575 -0.000001 -0.000001 0.000000 0.000000 0.869115
  3 2.187602 0.001962 -0.187651 -2.009507 -1.570796 0.000000
  4 1.158064 1.667789 -0.000000 1.257983 0.000001 1.477571
time 5
  0 0.000001 2.183670 4.044439 -1.570796 0.000000 -0.000000
  1 0.000000 1.274563 0.006851 -1.570796 -1.477571 1.570796
  2 10.129575 -0.000001 -0.000001 0.000000 0.000000 0.869115
  3 2.187602 0.001962 -0.187651 -3.056697 -1.570796 0.000000
  4 1.158064 1.667789 -0.000000 0.001682 0.000000 1.477571
time 6
  0 0.000001 2.183670 4.044439 -1.570796 0.000000 -0.000000
  1 0.000000 1.274563 0.006851 -1.570796 -1.477571 1.570796
  2 10.129575 -0.000001 -0.000001 0.000000 0.000000 0.869115
  3 2.187602 0.001962 -0.187651 2.179299 -1.570796 0.000000
  4 1.158064 1.667789 -0.000000 -1.254619 0.000001 1.477572
time 7
  0 0.000001 2.183670 4.044439 -1.570796 0.000000 -0.000000
  1 0.000000 1.274563 0.006851 -1.570796 -1.477571 1.570796
  2 10.129575 -0.000001 -0.000001 0.000000 0.000000 0.869115
  3 2.187602 0.001962 -0.187651 1.132109 -1.570796 0.000000
  4 1.158064 1.667789 -0.000000 -2.510919 0.000000 1.477571
time 8
  0 0.000001 2.183670 4.044439 -1.570796 0.000000 -0.000000
  1 0.000000 1.274563 0.006851 -1.570796 -1.477571 1.570796
  2 10.129575 -0.000001 -0.000001 0.000000 0.000000 0.869115
  3 2.187602 0.001962 -0.187651 0.084918 -1.570796 0.000000
  4 1.158064 1.667789 -0.000000 2.515965 0.000001 1.477572
time 9
  0 0.000001 2.183670 4.044439 -1.570796 0.000000 -0.000000
  1 0.000000 1.274563 0.006851 -1.570796 -1.477571 1.570796
  2 10.129575 -0.000001 -0.000001 0.000000 0.000000 0.869115
  3 2.187602 0.001962 -0.187651 -0.962271 -1.570796 0.000000
  4 1.158064 1.667789 -0.000000 1.259664 0.000000 1.477571
time 10
  0 0.000001 2.183670 4.044439 -1.570796 0.000000 -0.000000
  1 0.000000 1.274563 0.006851 -1.570796 -1.477571 1.570796
  2 10.129575 -0.000001 -0.000001 0.000000 0.000000 0.869115
  3 2.187602 0.001962 -0.187651 -2.009461 -1.570796 0.000000
  4 1.158064 1.667789 -0.000000 0.003363 0.000000 1.477571
time 11
  0 0.000001 2.183670 4.044439 -1.570796 0.000000 -0.000000
  1 0.000000 1.274563 0.006851 -1.570796 -1.477571 1.570796
  2 10.129575 -0.000001 -0.000001 0.000000 0.000000 0.869115
  3 2.187602 0.001962 -0.187651 -3.056650 -1.570796 0.000000
  4 1.158064 1.667789 -0.000000 -1.252937 0.000001 1.477571
time 12
  0 0.000001 2.183670 4.044439 -1.570796 0.000000 -0.000000
  1 0.000000 1.274563 0.006851 -1.570796 -1.477571 1.570796
  2 10.129575 -0.000001 -0.000001 0.000000 0.000000 0.869115
  3 2.187602 0.001962 -0.187651 2.179344 -1.570796 0.000000
  4 1.158064 1.667789 -0.000000 -2.509239 0.000000 1.477572
time 13
  0 0.000001 2.183670 4.044439 -1.570796 0.000000 -0.000000
  1 0.000000 1.274563 0.006851 -1.570796 -1.477571 1.570796
  2 10.129575 -0.000001 -0.000001 0.000000 0.000000 0.869115
  3 2.187602 0.001962 -0.187651 1.132155 -1.570796 0.000000
  4 1.158064 1.667789 -0.000000 2.517647 0.000001 1.477571
time 14
  0 0.000001 2.183670 4.044439 -1.570796 0.000000 -0.000000
  1 0.000000 1.274563 0.006851 -1.570796 -1.477571 1.570796
  2 10.129575 -0.000001 -0.000001 0.000000 0.000000 0.869115
  3 2.187602 0.001962 -0.187651 0.084968 -1.570796 0.000000
  4 1.158064 1.667789 -0.000000 1.261348 0.000000 1.477571
time 15
  0 0.000001 2.183670 4.044439 -1.570796 0.000000 -0.000000
  1 0.000000 1.274563 0.006851 -1.570796 -1.477571 1.570796
  2 10.129575 -0.000001 -0.000001 0.000000 0.000000 0.869115
  3 2.187602 0.001962 -0.187651 -0.962224 -1.570796 0.000000
  4 1.158064 1.667789 -0.000000 0.005046 0.000000 1.477571
time 16
  0 0.000001 2.183670 4.044439 -1.570796 0.000000 -0.000000
  1 0.000000 1.274563 0.006851 -1.570796 -1.477571 1.570796
  2 10.129575 -0.000001 -0.000001 0.000000 0.000000 0.869115
  3 2.187602 0.001962 -0.187651 -2.009414 -1.570796 0.000000
  4 1.158064 1.667789 -0.000000 -1.251256 0.000000 1.477571
time 17
  0 0.000001 2.183670 4.044439 -1.570796 0.000000 -0.000000
  1 0.000000 1.274563 0.006851 -1.570796 -1.477571 1.570796
  2 10.129575 -0.000001 -0.000001 0.000000 0.000000 0.869115
  3 2.187602 0.001962 -0.187651 -3.056604 -1.570796 0.000000
  4 1.158064 1.667789 -0.000000 -2.507555 0.000001 1.477572
time 18
  0 0.000001 2.183670 4.044439 -1.570796 0.000000 -0.000000
  1 0.000000 1.274563 0.006851 -1.570796 -1.477571 1.570796
  2 10.129575 -0.000001 -0.000001 0.000000 0.000000 0.869115
  3 2.187602 0.001962 -0.187651 2.179390 -1.570796 0.000000
  4 1.158064 1.667789 -0.000000 2.519329 0.000001 1.477571
time 19
  0 0.000001 2.183670 4.044439 -1.570796 0.000000 -0.000000
  1 0.000000 1.274563 0.006851 -1.570796 -1.477571 1.570796
  2 10.129575 -0.000001 -0.000001 0.000000 0.000000 0.869115
  3 2.187602 0.001962 -0.187651 1.132202 -1.570796 0.000000
  4 1.158064 1.667789 -0.000000 1.263031 0.000001 1.477572
time 20
  0 0.000001 2.183670 4.044439 -1.570796 0.000000 -0.000000
  1 0.000000 1.274563 0.006851 -1.570796 -1.477571 1.570796
  2 10.129575 -0.000001 -0.000001 0.000000 0.000000 0.869115
  3 2.187602 0.001962 -0.187651 0.085011 -1.570796 0.000000
  4 1.158064 1.667789 -0.000000 0.006725 0.000000 1.477571
time 21
  0 0.000001 2.183670 4.044439 -1.570796 0.000000 -0.000000
  1 0.000000 1.274563 0.006851 -1.570796 -1.477571 1.570796
  2 10.129575 -0.000001 -0.000001 0.000000 0.000000 0.869115
  3 2.187602 0.001962 -0.187651 -0.962175 -1.570796 0.000000
  4 1.158064 1.667789 -0.000000 -1.249571 0.000000 1.477571
time 22
  0 0.000001 2.183670 4.044439 -1.570796 0.000000 -0.000000
  1 0.000000 1.274563 0.006851 -1.570796 -1.477571 1.570796
  2 10.129575 -0.000001 -0.000001 0.000000 0.000000 0.869115
  3 2.187602 0.001962 -0.187651 -2.009367 -1.570796 0.000000
  4 1.158064 1.667789 -0.000000 -2.505875 0.000001 1.477571
time 23
  0 0.000001 2.183670 4.044439 -1.570796 0.000000 -0.000000
  1 0.000000 1.274563 0.006851 -1.570796 -1.477571 1.570796
  2 10.129575 -0.000001 -0.000001 0.000000 0.000000 0.869115
  3 2.187602 0.001962 -0.187651 -3.056556 -1.570796 0.000000
  4 1.158064 1.667789 -0.000000 2.521013 0.000000 1.477571
time 24
  0 0.000001 2.183670 4.044439 -1.570796 0.000000 -0.000000
  1 0.000000 1.274563 0.006851 -1.570796 -1.477571 1.570796
  2 10.129575 -0.000001 -0.000001 0.000000 0.000000 0.869115
  3 2.187602 0.001962 -0.187651 2.179437 -1.570796 0.000000
  4 1.158064 1.667789 -0.000000 1.264707 0.000001 1.477571
time 25
  0 0.000001 2.183670 4.044439 -1.570796 0.000000 -0.000000
  1 0.000000 1.274563 0.006851 -1.570796 -1.477571 1.570796
  2 10.129575 -0.000001 -0.000001 0.000000 0.000000 0.869115
  3 2.187602 0.001962 -0.187651 1.132249 -1.570796 0.000000
  4 1.158064 1.667789 -0.000000 0.008409 0.000000 1.477571
time 26
  0 0.000001 2.183670 4.044439 -1.570796 0.000000 -0.000000
  1 0.000000 1.274563 0.006851 -1.570796 -1.477571 1.570796
  2 10.129575 -0.000001 -0.000001 0.000000 0.000000 0.869115
  3 2.187602 0.001962 -0.187651 0.085056 -1.570796 0.000000
  4 1.158064 1.667789 -0.000000 -1.247893 0.000000 1.477571
time 27
  0 0.000001 2.183670 4.044439 -1.570796 0.000000 -0.000000
  1 0.000000 1.274563 0.006851 -1.570796 -1.477571 1.570796
  2 10.129575 -0.000001 -0.000001 0.000000 0.000000 0.869115
  3 2.187602 0.001962 -0.187651 -0.962130 -1.570796 0.000000
  4 1.158064 1.667789 -0.000000 -2.504191 0.000000 1.477571
time 28
  0 0.000001 2.183670 4.044439 -1.570796 0.000000 -0.000000
  1 0.000000 1.274563 0.006851 -1.570796 -1.477571 1.570796
  2 10.129575 -0.000001 -0.000001 0.000000 0.000000 0.869115
  3 2.187602 0.001962 -0.187651 -2.009320 -1.570796 0.000000
  4 1.158064 1.667789 -0.000000 2.522692 0.000001 1.477571
time 29
  0 0.000001 2.183670 4.044439 -1.570796 0.000000 -0.000000
  1 0.000000 1.274563 0.006851 -1.570796 -1.477571 1.570796
  2 10.129575 -0.000001 -0.000001 0.000000 0.000000 0.869115
  3 2.187602 0.001962 -0.187651 -3.056509 -1.570796 0.000000
  4 1.158064 1.667789 -0.000000 1.266394 0.000001 1.477571
time 30
  0 0.000001 2.183670 4.044439 -1.570796 0.000000 -0.000000
  1 0.000000 1.274563 0.006851 -1.570796 -1.477571 1.570796
  2 10.129575 -0.000001 -0.000001 0.000000 0.000000 0.869115
  3 2.187602 0.001962 -0.187651 2.179484 -1.570796 0.000000
  4 1.158064 1.667789 -0.000000 0.010090 0.000000 1.477572
end
